# This file uses meters as units for non-parametric coordinates.

mtllib NODE_1.mtl
g default
v 438.605957 9.435303 101.590355
v 438.790283 2.535522 1.829193
v 438.692139 28.863586 100.247169
v 438.876404 21.963806 0.486000
v -103.466354 32.684006 96.693161
v -103.282089 25.784225 -3.068008
v -103.552475 13.255692 98.036354
v -103.368179 6.355942 -1.724815
v 28.460297 121.485962 128.856628
v 46.092102 120.586578 133.057068
v 29.825333 121.650757 111.370102
v 47.457092 120.751404 115.570526
v 27.607574 -20.010635 109.505638
v 45.239349 -20.909988 113.706078
v 26.242569 -20.175400 126.992180
v 43.874329 -21.074814 131.192596
v -90.937927 130.031281 -121.842216
v -90.454529 -14.343201 -112.599495
v -90.943695 131.755798 -102.422356
v -90.460297 -12.618652 -93.179619
v 439.952545 136.543381 -102.422356
v 440.435913 -7.831100 -93.179619
v 439.958344 134.818832 -121.842216
v 440.441711 -9.555618 -112.599495
v -103.362320 2.534912 -96.912048
v -103.394333 10.012695 2.807964
v -103.445511 21.955078 -98.368370
v -103.477524 29.432861 1.351647
v 438.716736 25.775497 -98.368370
v 438.684692 33.253281 1.351647
v 438.799927 6.355331 -96.912048
v 438.767883 13.833115 2.807964
v -103.054947 109.476501 100.819138
v -102.491776 -12.407043 84.812294
v -103.043259 106.940674 120.128326
v -102.480057 -14.942810 104.121483
v 441.821594 110.500900 120.128326
v 442.384827 -11.382584 104.121483
v 441.809875 113.036667 100.819138
v 442.373108 -8.846786 84.812294
v 346.843719 123.660675 129.090424
v 363.891937 122.842834 138.016296
v 349.747833 124.582031 112.212517
v 366.796051 123.764221 121.138382
v 348.924805 -16.902481 104.056007
v 365.973053 -17.720352 112.981895
v 346.020691 -17.823807 120.933922
v 363.068909 -18.641647 129.859802
v 26.711975 -42.300232 172.123627
v 62.724243 -43.564026 171.172821
v 25.206161 -24.538635 173.162476
v 61.218384 -25.802368 172.211639
v 22.660217 -4.039719 -133.944275
v 58.672501 -5.303482 -134.895020
v 24.166092 -21.801376 -134.983032
v 60.178299 -23.065079 -135.933899
v 354.510742 -15.876709 70.892860
v 315.862915 26.616486 70.892860
v 346.990723 -22.716248 126.445015
v 308.342834 19.777008 126.445015
v -8.158218 -345.726562 38.600060
v -46.806076 -303.233368 38.600060
v -0.638168 -338.887024 -16.952099
v -39.286026 -296.393829 -16.952099
v 363.049561 -17.867279 -87.047096
v 324.401672 24.625977 -87.047096
v 365.285889 -15.833282 -30.653530
v 326.638062 26.659912 -30.653530
v 4.757797 -343.736023 -4.529573
v -33.890060 -301.242798 -4.529573
v 2.521439 -345.770020 -60.923141
v -36.126419 -303.276794 -60.923141
vt 0.861864 0.547041
vt 0.861864 0.016555
vt 0.878413 0.016555
vt 0.878413 0.547041
vt 0.776887 0.016555
vt 0.776887 0.547041
vt 0.760337 0.547041
vt 0.760338 0.016555
vt 0.963390 0.563590
vt 0.878413 0.563590
vt 0.963390 0.547041
vt 0.963390 0.016555
vt 0.878413 0.000006
vt 0.963390 0.000006
vt 0.563904 0.002149
vt 0.563581 0.087125
vt 0.547031 0.087062
vt 0.547355 0.002086
vt 0.016549 0.085045
vt 0.016872 0.000069
vt 0.000000 0.084982
vt 0.000323 0.000006
vt 0.016163 0.186570
vt 0.016486 0.101594
vt 0.546969 0.103611
vt 0.546645 0.188588
vt 0.546582 0.205137
vt 0.016100 0.203120
vt 0.963390 0.563590
vt 0.878413 0.563590
vt 0.878413 0.547041
vt 0.963390 0.547041
vt 0.878413 0.016555
vt 0.963390 0.016555
vt 0.878413 0.000006
vt 0.963390 0.000006
vt 0.776887 0.016555
vt 0.861864 0.016555
vt 0.861864 0.547041
vt 0.776887 0.547041
vt 0.760337 0.547041
vt 0.760338 0.016555
vt 0.963390 0.563590
vt 0.878413 0.563590
vt 0.878413 0.547041
vt 0.963390 0.547041
vt 0.878413 0.016555
vt 0.963390 0.016555
vt 0.878413 0.000006
vt 0.963390 0.000006
vt 0.776887 0.016555
vt 0.861864 0.016555
vt 0.861864 0.547041
vt 0.776887 0.547041
vt 0.760337 0.547041
vt 0.760338 0.016555
vt 0.963390 0.563590
vt 0.878413 0.563590
vt 0.878413 0.547041
vt 0.963390 0.547041
vt 0.878413 0.016555
vt 0.963390 0.016555
vt 0.878413 0.000006
vt 0.963390 0.000006
vt 0.776887 0.016555
vt 0.861864 0.016555
vt 0.861864 0.547041
vt 0.776887 0.547041
vt 0.760337 0.547041
vt 0.760338 0.016555
vt 0.563904 0.002149
vt 0.563581 0.087125
vt 0.547031 0.087062
vt 0.547355 0.002086
vt 0.016549 0.085045
vt 0.016872 0.000069
vt 0.000000 0.084982
vt 0.000323 0.000006
vt 0.016163 0.186570
vt 0.016486 0.101594
vt 0.546969 0.103611
vt 0.546645 0.188588
vt 0.546582 0.205137
vt 0.016100 0.203120
vt 0.563904 0.002149
vt 0.563581 0.087125
vt 0.547031 0.087062
vt 0.547355 0.002086
vt 0.016549 0.085045
vt 0.016872 0.000069
vt 0.000000 0.084982
vt 0.000323 0.000006
vt 0.016163 0.186570
vt 0.016486 0.101594
vt 0.546969 0.103611
vt 0.546645 0.188588
vt 0.546582 0.205137
vt 0.016100 0.203120
vt 0.662180 0.579302
vt 0.662180 0.628113
vt 0.614190 0.628113
vt 0.614190 0.579302
vt 0.565379 0.579302
vt 0.565379 0.048816
vt 0.614190 0.048816
vt 0.614190 0.000006
vt 0.662180 0.000006
vt 0.662180 0.048816
vt 0.710991 0.048816
vt 0.710991 0.579302
vt 0.758981 0.048816
vt 0.758981 0.579302
vt 0.662180 0.579302
vt 0.662180 0.628113
vt 0.614190 0.628113
vt 0.614190 0.579302
vt 0.565379 0.579302
vt 0.565379 0.048816
vt 0.614190 0.048816
vt 0.614190 0.000006
vt 0.662180 0.000006
vt 0.662180 0.048816
vt 0.710991 0.048816
vt 0.710991 0.579302
vt 0.758981 0.048816
vt 0.758981 0.579302
vn 0.999989 -0.004286 0.002144
vn 0.999989 -0.004286 0.002144
vn 0.999989 -0.004286 0.002144
vn 0.999989 -0.004286 0.002144
vn 0.007482 0.997590 -0.068982
vn 0.007482 0.997590 -0.068982
vn 0.007482 0.997590 -0.068982
vn 0.007482 0.997590 -0.068982
vn -0.999989 0.004283 -0.002143
vn -0.999989 0.004283 -0.002143
vn -0.999989 0.004283 -0.002143
vn -0.999989 0.004283 -0.002143
vn -0.007482 -0.997590 0.068982
vn -0.007482 -0.997590 0.068982
vn -0.007482 -0.997590 0.068982
vn -0.007482 -0.997590 0.068982
vn 0.006053 -0.068997 -0.997599
vn 0.006053 -0.068997 -0.997599
vn 0.006053 -0.068997 -0.997599
vn 0.006053 -0.068997 -0.997599
vn -0.006053 0.068997 0.997599
vn -0.006053 0.068997 0.997599
vn -0.006053 0.068997 0.997599
vn -0.006053 0.068997 0.997599
vn 0.047814 0.998770 0.013146
vn 0.047814 0.998770 0.013146
vn 0.047814 0.998770 0.013146
vn 0.047814 0.998770 0.013146
vn 0.232178 0.009166 -0.972630
vn 0.232179 0.009166 -0.972630
vn 0.232178 0.009166 -0.972630
vn 0.232178 0.009166 -0.972630
vn -0.047815 -0.998770 -0.013145
vn -0.047815 -0.998770 -0.013145
vn -0.047815 -0.998770 -0.013145
vn -0.047815 -0.998770 -0.013145
vn -0.232178 -0.009166 0.972630
vn -0.232178 -0.009166 0.972630
vn -0.232178 -0.009166 0.972630
vn -0.232178 -0.009166 0.972630
vn 0.996842 -0.016628 0.077657
vn 0.996842 -0.016628 0.077657
vn 0.996841 -0.016628 0.077657
vn 0.996842 -0.016628 0.077657
vn -0.996841 0.016628 -0.077658
vn -0.996841 0.016628 -0.077658
vn -0.996841 0.016628 -0.077658
vn -0.996841 0.016628 -0.077658
vn -0.999994 -0.003348 0.000000
vn -0.999994 -0.003348 0.000000
vn -0.999994 -0.003348 0.000000
vn -0.999994 -0.003348 0.000000
vn -0.000576 0.063886 0.997957
vn -0.000576 0.063886 0.997957
vn -0.000576 0.063886 0.997957
vn -0.000576 0.063886 0.997957
vn 0.999994 0.003348 0.000001
vn 0.999994 0.003348 0.000001
vn 0.999994 0.003348 0.000001
vn 0.999994 0.003348 0.000001
vn 0.000576 -0.063886 -0.997957
vn 0.000576 -0.063886 -0.997957
vn 0.000576 -0.063886 -0.997957
vn 0.000576 -0.063886 -0.997957
vn 0.008982 -0.996040 0.088453
vn 0.008982 -0.996040 0.088453
vn 0.008982 -0.996040 0.088453
vn 0.008982 -0.996040 0.088453
vn -0.008982 0.996040 -0.088454
vn -0.008982 0.996040 -0.088454
vn -0.008982 0.996040 -0.088454
vn -0.008982 0.996040 -0.088454
vn -0.999991 -0.004284 0.000000
vn -0.999991 -0.004284 0.000000
vn -0.999991 -0.004284 0.000000
vn -0.999991 -0.004284 0.000000
vn -0.007027 0.997176 -0.074778
vn -0.007027 0.997176 -0.074778
vn -0.007027 0.997175 -0.074778
vn -0.007027 0.997176 -0.074778
vn 0.999991 0.004285 0.000000
vn 0.999991 0.004285 0.000000
vn 0.999991 0.004285 0.000000
vn 0.999991 0.004285 0.000000
vn 0.007027 -0.997176 0.074778
vn 0.007027 -0.997175 0.074778
vn 0.007027 -0.997175 0.074778
vn 0.007027 -0.997176 0.074778
vn -0.000527 0.074778 0.997200
vn -0.000527 0.074778 0.997200
vn -0.000527 0.074778 0.997200
vn -0.000527 0.074778 0.997200
vn 0.000527 -0.074778 -0.997200
vn 0.000527 -0.074778 -0.997200
vn 0.000527 -0.074778 -0.997200
vn 0.000527 -0.074778 -0.997200
vn -0.999989 -0.004621 -0.000001
vn -0.999989 -0.004621 -0.000001
vn -0.999989 -0.004621 -0.000001
vn -0.999989 -0.004621 -0.000001
vn 0.000851 -0.130207 0.991487
vn 0.000851 -0.130207 0.991486
vn 0.000851 -0.130207 0.991486
vn 0.000851 -0.130207 0.991486
vn 0.999989 0.004621 -0.000000
vn 0.999989 0.004621 -0.000000
vn 0.999989 0.004621 -0.000000
vn 0.999989 0.004621 -0.000000
vn -0.000851 0.130207 -0.991486
vn -0.000851 0.130207 -0.991487
vn -0.000851 0.130207 -0.991487
vn -0.000851 0.130207 -0.991487
vn 0.006478 -0.991466 -0.130208
vn 0.006478 -0.991466 -0.130208
vn 0.006478 -0.991466 -0.130208
vn 0.006478 -0.991466 -0.130208
vn -0.006478 0.991465 0.130209
vn -0.006478 0.991466 0.130209
vn -0.006478 0.991466 0.130209
vn -0.006478 0.991466 0.130209
vn 0.017755 0.998185 0.057547
vn 0.017755 0.998185 0.057547
vn 0.017755 0.998185 0.057547
vn 0.017755 0.998185 0.057547
vn 0.465113 0.048253 -0.883935
vn 0.465113 0.048253 -0.883935
vn 0.465113 0.048253 -0.883935
vn 0.465113 0.048253 -0.883935
vn -0.017758 -0.998185 -0.057543
vn -0.017758 -0.998185 -0.057543
vn -0.017758 -0.998185 -0.057543
vn -0.017758 -0.998185 -0.057543
vn -0.465113 -0.048253 0.883935
vn -0.465113 -0.048253 0.883935
vn -0.465113 -0.048253 0.883935
vn -0.465113 -0.048253 0.883935
vn 0.985540 -0.015460 0.168735
vn 0.985540 -0.015460 0.168735
vn 0.985540 -0.015460 0.168735
vn 0.985540 -0.015460 0.168735
vn -0.985540 0.015460 -0.168734
vn -0.985540 0.015460 -0.168734
vn -0.985540 0.015460 -0.168734
vn -0.985540 0.015460 -0.168734
vn 0.024377 -0.056311 0.998116
vn 0.024377 -0.056311 0.998116
vn 0.024377 -0.056311 0.998116
vn 0.024377 -0.056311 0.998116
vn 0.036741 0.997126 0.066252
vn 0.036741 0.997126 0.066252
vn 0.036741 0.997126 0.066252
vn 0.036741 0.997126 0.066252
vn -0.024377 0.056310 -0.998116
vn -0.024377 0.056310 -0.998116
vn -0.024377 0.056310 -0.998116
vn -0.024377 0.056310 -0.998116
vn -0.036741 -0.997126 -0.066252
vn -0.036741 -0.997126 -0.066252
vn -0.036741 -0.997126 -0.066252
vn -0.036741 -0.997126 -0.066252
vn 0.996409 0.084628 -0.002611
vn 0.996409 0.084628 -0.002611
vn 0.996409 0.084628 -0.002611
vn 0.996409 0.084628 -0.002611
vn -0.996409 -0.084629 0.002611
vn -0.996409 -0.084629 0.002611
vn -0.996409 -0.084629 0.002611
vn -0.996409 -0.084629 0.002611
vn 0.727704 0.661852 0.179995
vn 0.727704 0.661852 0.179995
vn 0.727704 0.661852 0.179995
vn 0.727704 0.661852 0.179995
vn -0.133158 -0.121108 0.983667
vn -0.133158 -0.121108 0.983668
vn -0.133158 -0.121108 0.983668
vn -0.133158 -0.121108 0.983667
vn -0.727704 -0.661852 -0.179995
vn -0.727704 -0.661852 -0.179995
vn -0.727704 -0.661852 -0.179995
vn -0.727704 -0.661852 -0.179995
vn 0.133158 0.121108 -0.983667
vn 0.133158 0.121108 -0.983668
vn 0.133158 0.121108 -0.983668
vn 0.133158 0.121108 -0.983667
vn -0.672841 0.739787 -0.000000
vn -0.672841 0.739787 -0.000000
vn -0.672841 0.739787 -0.000000
vn -0.672841 0.739787 -0.000000
vn 0.672841 -0.739787 0.000000
vn 0.672841 -0.739787 0.000000
vn 0.672841 -0.739787 0.000000
vn 0.672841 -0.739787 0.000000
vn 0.738727 0.671876 -0.053528
vn 0.738727 0.671876 -0.053528
vn 0.738726 0.671876 -0.053528
vn 0.738727 0.671876 -0.053528
vn 0.039600 0.036016 0.998566
vn 0.039600 0.036016 0.998566
vn 0.039600 0.036016 0.998566
vn 0.039600 0.036016 0.998566
vn -0.738726 -0.671876 0.053529
vn -0.738726 -0.671876 0.053529
vn -0.738726 -0.671876 0.053529
vn -0.738726 -0.671876 0.053529
vn -0.039600 -0.036016 -0.998566
vn -0.039600 -0.036016 -0.998566
vn -0.039600 -0.036016 -0.998566
vn -0.039600 -0.036016 -0.998566
vn -0.672841 0.739787 0.000001
vn -0.672841 0.739787 0.000001
vn -0.672841 0.739787 0.000001
vn -0.672841 0.739787 0.000001
vn 0.672841 -0.739787 0.000001
vn 0.672841 -0.739787 0.000001
vn 0.672841 -0.739787 0.000001
vn 0.672841 -0.739787 0.000001
s off
g node9_pCube14
usemtl lambert3SG
f 1/9/1 2/10/2 4/4/3 3/11/4
f 3/11/5 4/4/6 6/3/7 5/12/8
f 5/12/9 6/3/10 8/13/11 7/14/12
f 7/5/13 8/2/14 2/1/15 1/6/16
f 2/1/17 8/2/18 6/3/19 4/4/20
f 7/5/21 1/6/22 3/7/23 5/8/24
f 9/15/25 10/16/26 12/17/27 11/18/28
f 11/18/29 12/17/30 14/19/31 13/20/32
f 13/20/33 14/19/34 16/21/35 15/22/36
f 15/23/37 16/24/38 10/25/39 9/26/40
f 10/25/41 16/24/42 14/19/43 12/17/44
f 15/23/45 9/26/46 11/27/47 13/28/48
f 17/29/49 18/30/50 20/31/51 19/32/52
f 19/32/53 20/31/54 22/33/55 21/34/56
f 21/34/57 22/33/58 24/35/59 23/36/60
f 23/37/61 24/38/62 18/39/63 17/40/64
f 18/39/65 24/38/66 22/33/67 20/31/68
f 23/37/69 17/40/70 19/41/71 21/42/72
f 25/43/73 26/44/74 28/45/75 27/46/76
f 27/46/77 28/45/78 30/47/79 29/48/80
f 29/48/81 30/47/82 32/49/83 31/50/84
f 31/51/85 32/52/86 26/53/87 25/54/88
f 26/53/89 32/52/90 30/47/91 28/45/92
f 31/51/93 25/54/94 27/55/95 29/56/96
f 33/57/97 34/58/98 36/59/99 35/60/100
f 35/60/101 36/59/102 38/61/103 37/62/104
f 37/62/105 38/61/106 40/63/107 39/64/108
f 39/65/109 40/66/110 34/67/111 33/68/112
f 34/67/113 40/66/114 38/61/115 36/59/116
f 39/65/117 33/68/118 35/69/119 37/70/120
f 41/71/121 42/72/122 44/73/123 43/74/124
f 43/74/125 44/73/126 46/75/127 45/76/128
f 45/76/129 46/75/130 48/77/131 47/78/132
f 47/79/133 48/80/134 42/81/135 41/82/136
f 42/81/137 48/80/138 46/75/139 44/73/140
f 47/79/141 41/82/142 43/83/143 45/84/144
f 49/85/145 50/86/146 52/87/147 51/88/148
f 51/88/149 52/87/150 54/89/151 53/90/152
f 53/90/153 54/89/154 56/91/155 55/92/156
f 55/93/157 56/94/158 50/95/159 49/96/160
f 50/95/161 56/94/162 54/89/163 52/87/164
f 55/93/165 49/96/166 51/97/167 53/98/168
f 57/99/169 58/100/170 60/101/171 59/102/172
f 59/102/173 60/103/174 62/104/175 61/105/176
f 61/105/177 62/106/178 64/107/179 63/108/180
f 63/108/181 64/109/182 58/110/183 57/99/184
f 58/110/185 64/109/186 62/111/187 60/112/188
f 63/108/189 57/99/190 59/102/191 61/105/192
f 65/113/193 66/114/194 68/115/195 67/116/196
f 67/116/197 68/117/198 70/118/199 69/119/200
f 69/119/201 70/120/202 72/121/203 71/122/204
f 71/122/205 72/123/206 66/124/207 65/113/208
f 66/124/209 72/123/210 70/125/211 68/126/212
f 71/122/213 65/113/214 67/116/215 69/119/216
